<svg viewBox="0 0 64 64" xmlns="http://www.w3.org/2000/svg" width="64" height="64">
  <!-- Globe -->
  <circle cx="32" cy="34" r="22" fill="#1a4a8a" opacity="0.9"/>
  <ellipse cx="32" cy="34" rx="12" ry="22" fill="none" stroke="rgba(255,255,255,0.2)" stroke-width="0.8"/>
  <line x1="10" y1="34" x2="54" y2="34" stroke="rgba(255,255,255,0.2)" stroke-width="0.8"/>
  <line x1="14" y1="24" x2="50" y2="24" stroke="rgba(255,255,255,0.15)" stroke-width="0.8"/>
  <line x1="14" y1="44" x2="50" y2="44" stroke="rgba(255,255,255,0.15)" stroke-width="0.8"/>
  <circle cx="32" cy="34" r="22" fill="none" stroke="rgba(255,255,255,0.25)" stroke-width="0.8"/>
  <!-- Glow from book -->
  <ellipse cx="32" cy="20" rx="14" ry="8" fill="rgba(255,240,180,0.18)"/>
  <!-- Open Bible -->
  <path d="M18 16 Q32 12 32 20 Q32 12 46 16 L46 26 Q32 22 32 30 Q32 22 18 26 Z" fill="#E8C97A" opacity="0.95"/>
  <line x1="32" y1="13" x2="32" y2="29" stroke="rgba(100,70,0,0.4)" stroke-width="0.7"/>
  <!-- Light rays -->
  <line x1="32" y1="8" x2="32" y2="2" stroke="#E8C97A" stroke-width="1.2" stroke-linecap="round" opacity="0.7"/>
  <line x1="38" y1="9" x2="41" y2="4" stroke="#E8C97A" stroke-width="1" stroke-linecap="round" opacity="0.5"/>
  <line x1="26" y1="9" x2="23" y2="4" stroke="#E8C97A" stroke-width="1" stroke-linecap="round" opacity="0.5"/>
</svg>
